<svg width="512" height="512" viewBox="0 0 512 512" fill="none" xmlns="http://www.w3.org/2000/svg">
  <defs>
    <linearGradient id="g" x1="112" y1="94" x2="405" y2="414" gradientUnits="userSpaceOnUse">
      <stop stop-color="#38BDF8"/>
      <stop offset="1" stop-color="#818CF8"/>
    </linearGradient>
    <linearGradient id="paper" x1="194" y1="122" x2="324" y2="390" gradientUnits="userSpaceOnUse">
      <stop stop-color="#F8FAFC"/>
      <stop offset="1" stop-color="#E2E8F0"/>
    </linearGradient>
    <filter id="shadow" x="-30%" y="-30%" width="160%" height="160%">
      <feDropShadow dx="0" dy="18" stdDeviation="18" flood-color="#020617" flood-opacity="0.18"/>
    </filter>
  </defs>

  <!-- icon shell -->
  <rect x="48" y="48" width="416" height="416" rx="112" fill="#0F172A"/>

  <!-- clipboard -->
  <g filter="url(#shadow)">
    <rect x="154" y="128" width="204" height="258" rx="44" fill="url(#paper)"/>
    <rect x="154" y="128" width="204" height="258" rx="44" stroke="url(#g)" stroke-width="16"/>

    <path d="M216 128C216 106.461 233.461 89 255 89H257C278.539 89 296 106.461 296 128V145H216V128Z"
          fill="#0F172A" stroke="url(#g)" stroke-width="14" stroke-linejoin="round"/>
    <rect x="236" y="105" width="40" height="14" rx="7" fill="#E0F2FE"/>
  </g>

  <!-- sync mark -->
  <path d="M205 246C220 228 242 218 266 218C292 218 315 230 330 250"
        stroke="url(#g)" stroke-width="18" stroke-linecap="round"/>
  <path d="M315 228L334 250L306 254" stroke="url(#g)" stroke-width="18" stroke-linecap="round" stroke-linejoin="round"/>

  <path d="M307 301C292 319 270 329 246 329C220 329 197 317 182 297"
        stroke="url(#g)" stroke-width="18" stroke-linecap="round"/>
  <path d="M197 319L178 297L206 293" stroke="url(#g)" stroke-width="18" stroke-linecap="round" stroke-linejoin="round"/>

  <!-- LAN dots, kept tiny and restrained -->
  <circle cx="191" cy="270" r="10" fill="#0F172A"/>
  <circle cx="321" cy="278" r="10" fill="#0F172A"/>
  <circle cx="191" cy="270" r="5" fill="#38BDF8"/>
  <circle cx="321" cy="278" r="5" fill="#818CF8"/>
</svg>